<svg xmlns="http://www.w3.org/2000/svg" width="884.974" height="175.754" viewBox="0 0 884.974 175.754"><defs><style>.a{fill:#fff;stroke:rgba(0,0,0,0);}</style></defs><path class="a" d="M563.18,156l.539-4.008a18.353,18.353,0,0,0,7.9,1.9q7.8,0,7.8-8.273v-4.008a8.675,8.675,0,0,1-8.391,5.343,8.864,8.864,0,0,1-7.266-3.328q-2.695-3.328-2.7-8.977a14.224,14.224,0,0,1,3.071-9.469,9.893,9.893,0,0,1,7.945-3.656,9.479,9.479,0,0,1,7.336,3.469v-2.906h4.64V140.6a45.7,45.7,0,0,1-.621,8.847,9.723,9.723,0,0,1-2.332,4.7q-3.024,3.21-9.4,3.211A26.8,26.8,0,0,1,563.18,156Zm4.617-28.453a11.958,11.958,0,0,0-1.8,7.007q0,8.367,5.882,8.367,4.008,0,7.547-4.2v-10.57a9.1,9.1,0,0,0-6.633-3.164A5.777,5.777,0,0,0,567.8,127.544Zm64.641,19.336V142q5.859,2.719,9.633,2.719a6.916,6.916,0,0,0,4.676-1.524,5.033,5.033,0,0,0,1.769-4.008,5.331,5.331,0,0,0-1.16-3.469,15.4,15.4,0,0,0-4.278-3.188l-2.39-1.382a22.523,22.523,0,0,1-6.246-4.77,8.028,8.028,0,0,1-1.817-5.215,8.447,8.447,0,0,1,2.907-6.6,10.715,10.715,0,0,1,7.406-2.589,29.478,29.478,0,0,1,8.461,1.336v4.5q-5.485-2.156-8.18-2.156A6.449,6.449,0,0,0,639,117.02a4.237,4.237,0,0,0-1.664,3.422,4.419,4.419,0,0,0,1.219,3.07,19.37,19.37,0,0,0,4.453,3.188l2.484,1.407a21.6,21.6,0,0,1,6.282,4.828,8.589,8.589,0,0,1,1.781,5.461,8.934,8.934,0,0,1-3.34,7.266,13.508,13.508,0,0,1-8.848,2.742A34.6,34.6,0,0,1,632.438,146.879Zm-118.3-3.48q-4.394-5-4.395-13.231,0-8.273,4.418-13.23a16.524,16.524,0,0,1,23.59-.012q4.429,4.945,4.43,13.195,0,8.415-4.43,13.348t-12,4.934A14.7,14.7,0,0,1,514.138,143.4Zm3.738-23.907q-2.905,3.833-2.906,10.652,0,6.8,2.883,10.688a9.368,9.368,0,0,0,7.969,3.891,9.717,9.717,0,0,0,8.226-3.832q2.907-3.831,2.906-10.816,0-6.773-2.918-10.594a10.445,10.445,0,0,0-16.16.012ZM869.907,144.3q-4.149,3.821-7.992,3.821a7.321,7.321,0,0,1-5.25-1.98,6.607,6.607,0,0,1-2.086-5,7.169,7.169,0,0,1,3.5-6.411q3.5-2.238,10.043-2.238h1.1v-3.07q0-4.429-4.547-4.43a17,17,0,0,0-7.9,2.25v-3.821a23.272,23.272,0,0,1,8.742-1.9q4.266,0,6.294,1.921t2.027,5.977v11.531q0,3.961,2.438,3.961a6.057,6.057,0,0,0,.89-.094l.328,2.555a7.951,7.951,0,0,1-3.469.75Q870.8,148.121,869.907,144.3Zm-8.367-7.7a4.314,4.314,0,0,0-2.344,3.785,3.785,3.785,0,0,0,1.172,2.813,3.93,3.93,0,0,0,2.859,1.148,9.62,9.62,0,0,0,6-2.554v-6.586l-1.547-.047A11.6,11.6,0,0,0,861.539,136.6ZM803.7,144.5q-3.259-3.622-3.258-9.692,0-6.14,3.27-9.715a12.8,12.8,0,0,1,17.742,0q3.27,3.575,3.27,9.668,0,6.234-3.281,9.8t-9.023,3.562A11.15,11.15,0,0,1,803.7,144.5Zm1.664-9.692q0,9.844,7.124,9.844,7.336,0,7.336-9.891,0-9.773-7.242-9.773Q805.36,124.988,805.361,134.808ZM719.2,146.644V142.4a18.241,18.241,0,0,0,7.875,2.25,5.032,5.032,0,0,0,3.3-1.078,3.352,3.352,0,0,0,1.313-2.7q0-2.367-3.68-3.914l-2.7-1.148q-5.976-2.484-5.976-7.148a6.379,6.379,0,0,1,2.355-5.239,9.968,9.968,0,0,1,6.457-1.91,29.651,29.651,0,0,1,5.274.586l.96.187v3.844a22.966,22.966,0,0,0-6.141-1.148q-4.452,0-4.452,3.235,0,2.086,3.375,3.515l2.227.938a14.938,14.938,0,0,1,5.343,3.363,6.411,6.411,0,0,1,1.57,4.417,6.791,6.791,0,0,1-2.649,5.508,10.382,10.382,0,0,1-6.773,2.156A25.546,25.546,0,0,1,719.2,146.644Zm-27.164-.621a7.937,7.937,0,0,1-1.968-5.66V122.082h4.617v16.781a7.439,7.439,0,0,0,.832,4.066,3.131,3.131,0,0,0,2.777,1.207q4.219,0,7.969-5.555v-16.5h4.618v25.453h-4.618v-4.781q-3.679,5.366-8.929,5.367A6.916,6.916,0,0,1,692.04,146.023Zm-85.9-1.723q-4.149,3.821-7.992,3.821a7.321,7.321,0,0,1-5.25-1.98,6.607,6.607,0,0,1-2.086-5,7.169,7.169,0,0,1,3.5-6.411q3.5-2.238,10.043-2.238h1.1v-3.07q0-4.429-4.547-4.43a17,17,0,0,0-7.9,2.25v-3.821a23.273,23.273,0,0,1,8.743-1.9q4.265,0,6.293,1.921t2.027,5.977v11.531q0,3.961,2.438,3.961a6.057,6.057,0,0,0,.89-.094l.328,2.555a7.951,7.951,0,0,1-3.469.75Q607.032,148.121,606.141,144.3Zm-8.366-7.7a4.313,4.313,0,0,0-2.344,3.785A3.785,3.785,0,0,0,596.6,143.2a3.932,3.932,0,0,0,2.86,1.148,9.619,9.619,0,0,0,6-2.554v-6.586l-1.547-.047A11.594,11.594,0,0,0,597.775,136.6Zm-126.247,7.781a13.5,13.5,0,0,1-3.551-9.691,14.2,14.2,0,0,1,3.128-9.492,10.011,10.011,0,0,1,8-3.7,8.469,8.469,0,0,1,7.136,3.281q2.52,3.281,2.52,9.328l-.023,1.43H472.688q1.008,9.069,8.883,9.07a21.218,21.218,0,0,0,7.078-1.547v3.657a28.168,28.168,0,0,1-7.946,1.406A12.085,12.085,0,0,1,471.528,144.383Zm1.372-12.316h11.226q0-7.1-5.3-7.1Q473.508,124.965,472.9,132.067Zm-32.5,12.7q-2.637-3.352-2.637-9.164,0-6.352,2.988-10.219a9.887,9.887,0,0,1,15.364-.4V110.527h4.64v37.008h-4.64v-4.781q-2.813,5.366-8.484,5.367A8.7,8.7,0,0,1,440.4,144.77Zm2.285-9.633q0,8.93,5.906,8.93,3.845,0,7.524-4.2V128.153q-3.587-3.164-6.8-3.164Q442.688,124.988,442.688,135.137Zm394.523,12.4-9.469-25.453h4.618l7.406,19.8,7.8-19.8h4.312l-10.055,25.453Zm-46.219,0-11.976-13.055v13.055H774.4V110.527h4.617v23.907L789.8,122.082h4.969l-10.29,11.883,12.423,13.57Zm-30.188,0V130.754a7.384,7.384,0,0,0-.832-4.043,3.1,3.1,0,0,0-2.754-1.207q-4.242,0-7.992,5.555v16.476h-4.617V110.527h4.617v16.336q3.656-5.343,8.953-5.343a6.886,6.886,0,0,1,5.273,2.1,7.9,7.9,0,0,1,1.969,5.637v18.281Zm-84.047,0V130.754a7.374,7.374,0,0,0-.833-4.043,3.1,3.1,0,0,0-2.753-1.207q-4.243,0-7.993,5.555v16.476h-4.617V110.527h4.617v16.336q3.657-5.343,8.953-5.343a6.889,6.889,0,0,1,5.274,2.1,7.9,7.9,0,0,1,1.968,5.637v18.281Zm-127.547,0V110.527h4.617v37.008Zm93.09-79.5q-7.992-8.659-7.992-26.761v-56.43h12.714V41.393q0,13.5,4.995,19.648t15.894,6.145q10.656,0,15.107-5.782t4.451-19.587V-15.158h11.14V41.635q0,18.347-7.538,26.7t-24.007,8.356Q650.294,76.692,642.3,68.034ZM172.518,72.756V60.162q15.136,7.024,24.884,7.024,7.509,0,12.08-3.936A13,13,0,0,0,214.053,52.9a13.765,13.765,0,0,0-3-8.96q-3-3.694-11.05-8.235l-6.176-3.572Q182.388,25.59,177.7,19.808A20.746,20.746,0,0,1,173,6.336a21.816,21.816,0,0,1,7.508-17.043q7.507-6.691,19.133-6.691A76.121,76.121,0,0,1,221.5-13.947V-2.322q-14.168-5.57-21.131-5.57a16.667,16.667,0,0,0-10.9,3.512,10.947,10.947,0,0,0-4.3,8.84,11.427,11.427,0,0,0,3.148,7.932q3.148,3.451,11.5,8.234l6.418,3.633q11.626,6.6,16.227,12.472a22.183,22.183,0,0,1,4.6,14.108q0,11.686-8.628,18.77t-22.856,7.084Q186.565,76.692,172.518,72.756ZM12.8,64.431Q1.412,52.17,1.412,29.707q0-22.4,11.595-34.754T45.672-17.4q12.049,0,28.215,3.936V-1.535q-18.406-6.357-28.4-6.358-14.592,0-22.584,9.869T14.915,29.829q0,17.134,8.536,27.034t23.311,9.9q12.714,0,27.246-7.81v10.9a62.177,62.177,0,0,1-28.941,6.842Q24.178,76.692,12.8,64.431ZM871.411,74.452l-9.748-24.825H823.7L813.83,74.452H802.024l35.541-89.609h12.594l35,89.609ZM827.393,40.182h30.577L842.711,1.553ZM777.018,74.452,731.85,5.246V74.452h-10.9V-15.158h12.473l45.107,69.206V-15.158h10.9V74.452Zm-208.1,0V-15.158h12.715v80.1h40.325v9.506Zm-106.441,0V-15.158h50.072v9.506H475.192v28.76h31.3v9.385h-31.3V64.946h39.961v9.506Zm-92.879,0V-15.158h29.789q13.32,0,21.524,2.966a33.2,33.2,0,0,1,14.2,10.051q9.507,11.262,9.506,29.668,0,22.343-11.806,34.633T399.569,74.452Zm12.715-9.506H398.6q17.438,0,24.7-9.385,7.81-9.99,7.81-26.822,0-15.8-7.69-24.825a23.665,23.665,0,0,0-11.14-7.538q-6.479-2.029-19.5-2.029H382.313Zm-78.65,9.506-9.748-24.825H255.952l-9.869,24.825H234.275l35.541-89.609H282.41l35,89.609ZM259.645,40.182h30.577L274.964,1.553ZM151.327,74.452l-9.749-24.825H103.615L93.747,74.452H81.94l35.541-89.609h12.594l35,89.609ZM107.309,40.182h30.577L122.628,1.553Z" transform="translate(-0.912 17.898)"/></svg>